<?xml version="1.0" encoding="iso-8859-1"?>
<!-- Uploaded to: SVG Repo, www.svgrepo.com, Generator: SVG Repo Mixer Tools -->
<svg height="800px" width="800px" version="1.1" id="Layer_1" xmlns="http://www.w3.org/2000/svg" xmlns:xlink="http://www.w3.org/1999/xlink" 
	 viewBox="0 0 512.001 512.001" xml:space="preserve">
<g>
	<polyline style="fill:#C3F6F9;" points="69.859,167.984 256.004,8.728 442.149,167.984 	"/>
	<polyline style="fill:#C3F6F9;" points="457.788,196.118 475.032,196.118 475.032,503.274 36.976,503.274 36.976,196.118 
		54.231,196.118 	"/>
</g>
<path style="fill:#EC589B;" d="M253.033,386.999l203.463-175.021c0.861-5.853,1.315-11.717,1.315-17.593
	c0-72.908-50.196-132.006-112.12-132.006c-49.533,0-89.687,47.287-89.687,105.604c0-58.317-40.154-105.604-89.687-105.604
	c-61.913,0-112.109,59.097-112.109,132.006c0,5.876,0.454,11.752,1.315,17.605"/>
<polyline style="fill:#C3F6F9;" points="475.035,503.28 256.007,315.888 36.978,503.28 "/>
<path d="M475.032,187.392h-8.641c-1.503-36.444-14.748-70.069-37.681-95.316c-3.242-3.567-8.76-3.832-12.328-0.592
	c-3.566,3.241-3.833,8.76-0.592,12.328c21.159,23.292,33.293,56.305,33.293,90.574c0,4.292-0.282,8.701-0.811,13.142
	L295.526,338.214l-33.846-28.956c-3.268-2.795-8.081-2.794-11.347,0l-33.849,28.96L63.746,207.538
	c-0.529-4.439-0.811-8.85-0.811-13.153c0-67.976,46.376-123.279,103.382-123.279c44.641,0,80.96,43.459,80.96,96.878
	c0,4.819,3.906,8.727,8.727,8.727c4.821,0,8.727-3.907,8.727-8.727c0-53.419,36.319-96.878,80.96-96.878
	c16.767,0,32.765,4.645,47.549,13.806c4.096,2.538,9.477,1.275,12.014-2.822c2.539-4.097,1.276-9.476-2.822-12.015
	c-17.339-10.743-36.962-16.422-56.742-16.422c-7.116,0-14.055,0.897-20.747,2.571L261.675,2.095c-3.266-2.794-8.081-2.794-11.347,0
	l-63.267,54.129c-6.692-1.676-13.63-2.571-20.747-2.571c-64.615,0-117.545,59.375-120.685,133.739h-8.656
	c-4.821,0-8.727,3.907-8.727,8.727v307.156c0,4.819,3.906,8.727,8.727,8.727h438.056c4.821,0,8.727-3.907,8.727-8.727V196.118
	C483.759,191.299,479.853,187.392,475.032,187.392z M256.004,20.212l50.284,43.021c-22.265,11.347-40.254,31.991-50.284,57.693
	c-10.031-25.702-28.02-46.344-50.284-57.693L256.004,20.212z M466.305,215.069v269.256L308.95,349.699L466.305,215.069z
	 M138.279,416.611c3.132,3.662,8.641,4.091,12.305,0.958l105.423-90.197l195.4,167.175H60.609l67.392-57.658
	c3.662-3.133,4.091-8.642,0.958-12.303c-3.132-3.663-8.641-4.092-12.305-0.958l-70.951,60.703V215.069l157.359,134.632
	l-63.825,54.606C135.575,407.44,135.146,412.95,138.279,416.611z"/>
</svg>